<svg width="24" height="24" viewBox="0 0 24 24" fill="none" xmlns="http://www.w3.org/2000/svg">
<path d="M9.49616 12C10.4846 12 11.4508 11.7068 12.2726 11.1573C13.0944 10.6079 13.735 9.82705 14.1132 8.91342C14.4914 7.99979 14.5904 6.99446 14.3976 6.02455C14.2048 5.05465 13.7288 4.16373 13.0299 3.46447C12.331 2.76521 11.4405 2.289 10.4711 2.09608C9.50171 1.90315 8.49689 2.00217 7.58372 2.3806C6.67056 2.75904 5.89007 3.39991 5.34094 4.22215C4.79182 5.0444 4.49872 6.0111 4.49872 7C4.50004 8.32568 5.02698 9.59668 5.9639 10.5341C6.90081 11.4715 8.17116 11.9987 9.49616 12ZM9.49616 3.66667C10.1551 3.66667 10.7992 3.86217 11.3471 4.22844C11.895 4.59471 12.322 5.1153 12.5742 5.72439C12.8263 6.33348 12.8923 7.0037 12.7638 7.6503C12.6352 8.29691 12.3179 8.89085 11.852 9.35702C11.386 9.8232 10.7924 10.1407 10.1461 10.2693C9.49986 10.3979 8.82998 10.3319 8.2212 10.0796C7.61243 9.82731 7.0921 9.40007 6.72601 8.8519C6.35993 8.30374 6.16453 7.65927 6.16453 7C6.16453 6.11595 6.51554 5.2681 7.14035 4.64298C7.76515 4.01786 8.61256 3.66667 9.49616 3.66667ZM16.9923 21.1667C16.9923 21.3877 16.9046 21.5996 16.7484 21.7559C16.5922 21.9122 16.3803 22 16.1594 22C15.9385 22 15.7267 21.9122 15.5705 21.7559C15.4143 21.5996 15.3265 21.3877 15.3265 21.1667C15.3265 19.6196 14.7122 18.1358 13.6188 17.0419C12.5254 15.9479 11.0425 15.3333 9.49616 15.3333C7.94986 15.3333 6.46689 15.9479 5.37348 17.0419C4.28008 18.1358 3.66581 19.6196 3.66581 21.1667C3.66581 21.3877 3.57806 21.5996 3.42186 21.7559C3.26566 21.9122 3.05381 22 2.83291 22C2.61201 22 2.40015 21.9122 2.24395 21.7559C2.08775 21.5996 2 21.3877 2 21.1667C2 19.1775 2.78977 17.2699 4.19557 15.8634C5.60138 14.4568 7.50806 13.6667 9.49616 13.6667C11.4843 13.6667 13.3909 14.4568 14.7967 15.8634C16.2026 17.2699 16.9923 19.1775 16.9923 21.1667ZM21.7457 13.9108C21.8253 13.9877 21.8887 14.0797 21.9324 14.1813C21.976 14.283 21.999 14.3924 22 14.503C22.0009 14.6137 21.9799 14.7234 21.938 14.8258C21.8961 14.9282 21.8342 15.0213 21.756 15.0995C21.6778 15.1777 21.5848 15.2396 21.4825 15.2815C21.3801 15.3234 21.2704 15.3445 21.1599 15.3435C21.0493 15.3426 20.94 15.3196 20.8384 15.2759C20.7367 15.2322 20.6448 15.1688 20.568 15.0892L19.0746 13.595L17.5812 15.0892C17.4241 15.241 17.2137 15.325 16.9953 15.3231C16.7769 15.3212 16.568 15.2335 16.4136 15.079C16.2592 14.9245 16.1716 14.7155 16.1697 14.497C16.1678 14.2785 16.2517 14.068 16.4035 13.9108L17.8969 12.4167L16.4035 10.9225C16.2517 10.7653 16.1678 10.5548 16.1697 10.3363C16.1716 10.1178 16.2592 9.90883 16.4136 9.75432C16.568 9.59981 16.7769 9.51217 16.9953 9.51027C17.2137 9.50837 17.4241 9.59237 17.5812 9.74417L19.0746 11.2383L20.568 9.74417C20.7251 9.59237 20.9355 9.50837 21.1539 9.51027C21.3722 9.51217 21.5811 9.59981 21.7356 9.75432C21.89 9.90883 21.9776 10.1178 21.9795 10.3363C21.9814 10.5548 21.8974 10.7653 21.7457 10.9225L20.2523 12.4167L21.7457 13.9108Z" fill="#E04545"/>
</svg>
