<svg width="34" height="34" viewBox="0 0 34 34" fill="none" xmlns="http://www.w3.org/2000/svg">
<g clip-path="url(#clip0_157_1758)">
<path d="M26.9167 2.83333H25.5V1.41667C25.5 1.04094 25.3507 0.680609 25.0851 0.414932C24.8194 0.149256 24.4591 0 24.0833 0C23.7076 0 23.3473 0.149256 23.0816 0.414932C22.8159 0.680609 22.6667 1.04094 22.6667 1.41667V2.83333H11.3333V1.41667C11.3333 1.04094 11.1841 0.680609 10.9184 0.414932C10.6527 0.149256 10.2924 0 9.91667 0C9.54094 0 9.18061 0.149256 8.91493 0.414932C8.64926 0.680609 8.5 1.04094 8.5 1.41667V2.83333H7.08333C5.20541 2.83558 3.40504 3.58258 2.07714 4.91048C0.749249 6.23837 0.00224946 8.03874 0 9.91667L0 26.9167C0.00224946 28.7946 0.749249 30.595 2.07714 31.9229C3.40504 33.2508 5.20541 33.9977 7.08333 34H26.9167C28.7946 33.9977 30.595 33.2508 31.9229 31.9229C33.2508 30.595 33.9977 28.7946 34 26.9167V9.91667C33.9977 8.03874 33.2508 6.23837 31.9229 4.91048C30.595 3.58258 28.7946 2.83558 26.9167 2.83333ZM2.83333 9.91667C2.83333 8.7895 3.2811 7.70849 4.07813 6.91146C4.87516 6.11443 5.95616 5.66667 7.08333 5.66667H26.9167C28.0438 5.66667 29.1248 6.11443 29.9219 6.91146C30.7189 7.70849 31.1667 8.7895 31.1667 9.91667V11.3333H2.83333V9.91667ZM26.9167 31.1667H7.08333C5.95616 31.1667 4.87516 30.7189 4.07813 29.9219C3.2811 29.1248 2.83333 28.0438 2.83333 26.9167V14.1667H31.1667V26.9167C31.1667 28.0438 30.7189 29.1248 29.9219 29.9219C29.1248 30.7189 28.0438 31.1667 26.9167 31.1667Z" fill="#7436D7"/>
<path d="M17 23.375C18.1736 23.375 19.125 22.4236 19.125 21.25C19.125 20.0764 18.1736 19.125 17 19.125C15.8264 19.125 14.875 20.0764 14.875 21.25C14.875 22.4236 15.8264 23.375 17 23.375Z" fill="#7436D7"/>
<path d="M9.91602 23.375C11.0896 23.375 12.041 22.4236 12.041 21.25C12.041 20.0764 11.0896 19.125 9.91602 19.125C8.74241 19.125 7.79102 20.0764 7.79102 21.25C7.79102 22.4236 8.74241 23.375 9.91602 23.375Z" fill="#7436D7"/>
<path d="M24.084 23.375C25.2576 23.375 26.209 22.4236 26.209 21.25C26.209 20.0764 25.2576 19.125 24.084 19.125C22.9104 19.125 21.959 20.0764 21.959 21.25C21.959 22.4236 22.9104 23.375 24.084 23.375Z" fill="#7436D7"/>
</g>
<defs>
<clipPath id="clip0_157_1758">
<rect width="34" height="34" fill="white"/>
</clipPath>
</defs>
</svg>
