<svg width="20" height="20" viewBox="0 0 20 20" fill="none" xmlns="http://www.w3.org/2000/svg">
<path fill-rule="evenodd" clip-rule="evenodd" d="M12.6283 1.83306C10.7351 1.38898 8.7649 1.38898 6.87171 1.83306C4.37161 2.4195 2.4195 4.3716 1.83306 6.87171C1.38898 8.7649 1.38898 10.7351 1.83306 12.6283C2.4195 15.1284 4.37161 17.0805 6.87171 17.6669C8.7649 18.111 10.7351 18.111 12.6283 17.6669C15.1284 17.0805 17.0805 15.1284 17.6669 12.6283C18.111 10.7351 18.111 8.7649 17.6669 6.87171C17.0805 4.37161 15.1284 2.4195 12.6283 1.83306ZM6.52916 0.372698C8.6476 -0.124233 10.8524 -0.124233 12.9708 0.372698C16.0256 1.08924 18.4108 3.47441 19.1273 6.52916C19.6242 8.6476 19.6242 10.8524 19.1273 12.9708C18.4108 16.0256 16.0256 18.4108 12.9708 19.1273C10.8524 19.6242 8.6476 19.6242 6.52916 19.1273C3.47442 18.4108 1.08924 16.0256 0.372698 12.9709C-0.124233 10.8524 -0.124233 8.6476 0.372698 6.52915C1.08924 3.47441 3.47441 1.08924 6.52916 0.372698Z" fill="#4E4C57"/>
<path fill-rule="evenodd" clip-rule="evenodd" d="M8.21968 12.7803C7.92678 12.4874 7.92678 12.0126 8.21968 11.7197L10.1893 9.75L8.21968 7.7803C7.92678 7.48744 7.92678 7.01256 8.21968 6.71967C8.51258 6.42678 8.98738 6.42678 9.28028 6.71967L11.7803 9.2197C11.921 9.3603 12 9.5511 12 9.75C12 9.9489 11.921 10.1397 11.7803 10.2803L9.28028 12.7803C8.98738 13.0732 8.51258 13.0732 8.21968 12.7803Z" fill="#4E4C57"/>
</svg>
