<svg width="18" height="18" viewBox="0 0 18 18" fill="none" xmlns="http://www.w3.org/2000/svg">
<g clip-path="url(#clip0_61_1809)">
<path d="M14.359 0H2.87179C2.11015 0 1.3797 0.302563 0.841129 0.841129C0.302563 1.3797 0 2.11015 0 2.87179L0 11.4872C0 12.2488 0.302563 12.9793 0.841129 13.5178C1.3797 14.0564 2.11015 14.359 2.87179 14.359H4.95385L8.14944 17.0606C8.27907 17.1703 8.4434 17.2305 8.61323 17.2305C8.78306 17.2305 8.94739 17.1703 9.07703 17.0606L12.2769 14.359H14.359C15.1206 14.359 15.8511 14.0564 16.3896 13.5178C16.9282 12.9793 17.2308 12.2488 17.2308 11.4872V2.87179C17.2308 2.11015 16.9282 1.3797 16.3896 0.841129C15.8511 0.302563 15.1206 0 14.359 0V0ZM15.7949 11.4872C15.7949 11.868 15.6436 12.2332 15.3743 12.5025C15.105 12.7718 14.7398 12.9231 14.359 12.9231H12.2769C11.9375 12.9232 11.6092 13.0435 11.3501 13.2627L8.61539 15.5723L5.88215 13.2627C5.62266 13.0432 5.29372 12.9228 4.95385 12.9231H2.87179C2.49097 12.9231 2.12575 12.7718 1.85646 12.5025C1.58718 12.2332 1.4359 11.868 1.4359 11.4872V2.87179C1.4359 2.49097 1.58718 2.12575 1.85646 1.85646C2.12575 1.58718 2.49097 1.4359 2.87179 1.4359H14.359C14.7398 1.4359 15.105 1.58718 15.3743 1.85646C15.6436 2.12575 15.7949 2.49097 15.7949 2.87179V11.4872Z" fill="#4E4C57"/>
<path d="M5.02654 5.02574H8.61629C8.8067 5.02574 8.98931 4.9501 9.12395 4.81546C9.25859 4.68082 9.33424 4.4982 9.33424 4.30779C9.33424 4.11738 9.25859 3.93477 9.12395 3.80013C8.98931 3.66548 8.8067 3.58984 8.61629 3.58984H5.02654C4.83613 3.58984 4.65352 3.66548 4.51888 3.80013C4.38423 3.93477 4.30859 4.11738 4.30859 4.30779C4.30859 4.4982 4.38423 4.68082 4.51888 4.81546C4.65352 4.9501 4.83613 5.02574 5.02654 5.02574Z" fill="#4E4C57"/>
<path d="M12.206 6.46143H5.02654C4.83613 6.46143 4.65352 6.53707 4.51888 6.67171C4.38423 6.80635 4.30859 6.98896 4.30859 7.17937C4.30859 7.36978 4.38423 7.5524 4.51888 7.68704C4.65352 7.82168 4.83613 7.89732 5.02654 7.89732H12.206C12.3964 7.89732 12.5791 7.82168 12.7137 7.68704C12.8483 7.5524 12.924 7.36978 12.924 7.17937C12.924 6.98896 12.8483 6.80635 12.7137 6.67171C12.5791 6.53707 12.3964 6.46143 12.206 6.46143Z" fill="#4E4C57"/>
<path d="M12.206 9.33325H5.02654C4.83613 9.33325 4.65352 9.40889 4.51888 9.54354C4.38423 9.67818 4.30859 9.86079 4.30859 10.0512C4.30859 10.2416 4.38423 10.4242 4.51888 10.5589C4.65352 10.6935 4.83613 10.7692 5.02654 10.7692H12.206C12.3964 10.7692 12.5791 10.6935 12.7137 10.5589C12.8483 10.4242 12.924 10.2416 12.924 10.0512C12.924 9.86079 12.8483 9.67818 12.7137 9.54354C12.5791 9.40889 12.3964 9.33325 12.206 9.33325Z" fill="#4E4C57"/>
</g>
<defs>
<clipPath id="clip0_61_1809">
<rect width="17.2308" height="17.2308" fill="white"/>
</clipPath>
</defs>
</svg>
