<svg width="24" height="24" viewBox="0 0 24 24" fill="none" xmlns="http://www.w3.org/2000/svg">
<path fill-rule="evenodd" clip-rule="evenodd" d="M16.2518 4.0016C14.8216 3.66613 13.3332 3.66613 11.9031 4.0016C10.0441 4.43767 8.59255 5.88919 8.15649 7.74819C8.03069 8.2845 7.95206 8.829 7.92061 9.37555C7.86819 10.2865 7.94682 11.2031 8.15649 12.0969C8.59255 13.9559 10.0441 15.4075 11.9031 15.8435C12.8036 16.0547 13.7271 16.133 14.6447 16.0782C15.1845 16.046 15.7221 15.9678 16.2518 15.8435C18.1108 15.4074 19.5623 13.9559 19.9984 12.0969C20.3339 10.6668 20.3339 9.17836 19.9984 7.74819C19.5623 5.88919 18.1108 4.43767 16.2518 4.0016ZM15.2916 17.528C15.7289 17.4796 16.1639 17.4048 16.5944 17.3039C19.008 16.7377 20.8926 14.8531 21.4588 12.4395C21.8471 10.784 21.8471 9.06112 21.4588 7.40564C20.8926 4.992 19.008 3.10741 16.5944 2.54124C14.9389 2.15292 13.216 2.15292 11.5605 2.54124C9.14688 3.10741 7.26229 4.99199 6.69613 7.40563C6.59515 7.83611 6.52043 8.27114 6.47197 8.70836C4.49851 9.27785 2.97494 10.8703 2.50247 12.8845C2.16584 14.3196 2.16584 15.8131 2.50247 17.2482C2.99704 19.3567 4.64334 21.003 6.75179 21.4975C8.18687 21.8342 9.68037 21.8342 11.1154 21.4975C13.1297 21.0251 14.7221 19.5015 15.2916 17.528ZM13.6815 17.588C12.9693 17.5624 12.2589 17.4677 11.5605 17.3039C9.14688 16.7377 7.26229 14.8531 6.69613 12.4395C6.67186 12.336 6.6491 12.2323 6.62787 12.1283C6.50576 11.5306 6.43381 10.9252 6.412 10.3185C5.19172 10.8363 4.27197 11.9092 3.96283 13.2271C3.67906 14.4369 3.67906 15.6959 3.96283 16.9057C4.3273 18.4595 5.54053 19.6727 7.09435 20.0372C8.30411 20.3209 9.56313 20.3209 10.7729 20.0372C12.0908 19.728 13.1637 18.8083 13.6815 17.588Z" fill="#7436D7"/>
</svg>
