<svg width="18" height="18" viewBox="0 0 18 18" fill="none" xmlns="http://www.w3.org/2000/svg">
<path fill-rule="evenodd" clip-rule="evenodd" d="M9 2.8125C8.6226 2.8125 8.25008 2.87917 7.90418 3.00757C7.55835 3.13594 7.24777 3.32278 6.98891 3.55474C6.73018 3.78661 6.52865 4.0585 6.3925 4.35304C6.33839 4.4701 6.2949 4.5901 6.26213 4.71194H11.7379C11.7051 4.5901 11.6616 4.4701 11.6075 4.35305C11.4713 4.0585 11.2698 3.78661 11.0111 3.55474C10.7522 3.32278 10.4416 3.13594 10.0958 3.00757C9.74992 2.87917 9.3774 2.8125 9 2.8125ZM12.8888 4.71194C12.8392 4.42654 12.7519 4.14751 12.6287 3.88103C12.4256 3.4417 12.13 3.04676 11.7619 2.71694C11.3939 2.38721 10.9604 2.12849 10.4873 1.95288C10.0142 1.77729 9.50903 1.6875 9 1.6875C8.49097 1.6875 7.98577 1.77729 7.51268 1.95288C7.03962 2.12849 6.60606 2.38721 6.23812 2.71694C5.87006 3.04676 5.57438 3.4417 5.37131 3.88103C5.24814 4.14751 5.16081 4.42654 5.11114 4.71194H2.25C1.93934 4.71194 1.6875 4.96378 1.6875 5.27444C1.6875 5.58511 1.93934 5.83694 2.25 5.83694H3.1875V9.13193C3.1875 10.3659 3.36111 11.5937 3.70318 12.7787C4.21409 14.5486 5.68625 15.8705 7.49498 16.1761L7.61325 16.1962C8.53132 16.3513 9.4686 16.3513 10.3867 16.1962L10.505 16.1761C12.3137 15.8705 13.7859 14.5486 14.2968 12.7787C14.6389 11.5937 14.8125 10.3659 14.8125 9.13185V5.83694H15.75C16.0606 5.83694 16.3125 5.58511 16.3125 5.27444C16.3125 4.96378 16.0606 4.71194 15.75 4.71194H12.8888ZM13.6875 5.83694H4.3125V9.13193C4.3125 10.2605 4.47127 11.3832 4.78405 12.4667C5.17618 13.8251 6.30392 14.8339 7.6824 15.0669L7.80075 15.0869C8.5947 15.221 9.4053 15.221 10.1993 15.0869L10.3176 15.0669C11.696 14.8339 12.8238 13.8251 13.2159 12.4667C13.5287 11.3832 13.6875 10.2605 13.6875 9.13185V5.83694Z" fill="#E04545"/>
<path fill-rule="evenodd" clip-rule="evenodd" d="M7.5 8.4375C7.81065 8.4375 8.0625 8.68935 8.0625 9V12C8.0625 12.3107 7.81065 12.5625 7.5 12.5625C7.18934 12.5625 6.9375 12.3107 6.9375 12V9C6.9375 8.68935 7.18934 8.4375 7.5 8.4375ZM10.5 8.4375C10.8107 8.4375 11.0625 8.68935 11.0625 9V12C11.0625 12.3107 10.8107 12.5625 10.5 12.5625C10.1893 12.5625 9.9375 12.3107 9.9375 12V9C9.9375 8.68935 10.1893 8.4375 10.5 8.4375Z" fill="#E04545"/>
</svg>
