<svg width="37" height="40" viewBox="0 0 37 40" fill="none" xmlns="http://www.w3.org/2000/svg">
<path d="M25.7057 15.6883C26.1477 15.158 26.076 14.3698 25.5457 13.9278C25.0154 13.4859 24.2272 13.5575 23.7852 14.0879L18.0125 21.0149C17.3947 21.7566 17.0152 22.2072 16.7025 22.4896C16.5575 22.6206 16.4715 22.6727 16.4302 22.6926C16.4219 22.6967 16.4159 22.6991 16.4122 22.7006C16.4084 22.6991 16.4024 22.6967 16.394 22.6926C16.3529 22.6727 16.2669 22.6206 16.1219 22.4896C15.8092 22.2072 15.4297 21.7566 14.8117 21.0149L12.3724 18.0879C11.9305 17.5576 11.1423 17.4859 10.6119 17.9277C10.0816 18.3697 10.0099 19.1579 10.4519 19.6882L12.9444 22.6794C13.4918 23.3364 13.9853 23.9287 14.4463 24.3451C14.9479 24.7979 15.5797 25.2014 16.4122 25.2014C17.2447 25.2014 17.8764 24.7979 18.378 24.3451C18.839 23.9287 19.3325 23.3364 19.8799 22.6794L25.7057 15.6883Z" fill="#29AE18"/>
<path fill-rule="evenodd" clip-rule="evenodd" d="M24.0199 4.48241C22.3143 -1.49414 13.8444 -1.49414 12.1388 4.48241C11.5941 6.39101 9.63325 7.52311 7.70799 7.04053C1.67935 5.52936 -2.55561 12.8645 1.76741 17.3299C3.14796 18.7559 3.14796 21.0202 1.76741 22.4462C-2.55562 26.9115 1.67935 34.2467 7.70799 32.7355C9.63325 32.253 11.5941 33.385 12.1388 35.2937C13.8444 41.2702 22.3143 41.2702 24.0199 35.2937C24.5646 33.385 26.5254 32.253 28.4508 32.7355C34.4794 34.2467 38.7144 26.9115 34.3914 22.4462C33.0108 21.0202 33.0108 18.7559 34.3914 17.3299C38.7144 12.8645 34.4794 5.52936 28.4508 7.04053C26.5254 7.52311 24.5646 6.39101 24.0199 4.48241ZM14.5428 5.16848C15.5583 1.61051 20.6006 1.61051 21.6159 5.16848C22.5309 8.37448 25.8246 10.2761 29.0586 9.46549C32.6476 8.56588 35.1688 12.9327 32.5951 15.591C30.2763 17.9864 30.2763 21.7897 32.5951 24.185C35.1688 26.8434 32.6476 31.2102 29.0586 30.3105C25.8246 29.5 22.5309 31.4015 21.6159 34.6075C20.6006 38.1655 15.5583 38.1655 14.5428 34.6075C13.6279 31.4015 10.3341 29.5 7.10014 30.3105C3.51116 31.2102 0.989978 26.8434 3.56358 24.185C5.88258 21.7897 5.88258 17.9864 3.56358 15.591C0.989978 12.9327 3.51116 8.56588 7.10014 9.46549C10.3341 10.2761 13.6279 8.37448 14.5428 5.16848Z" fill="#29AE18"/>
</svg>
