<svg width="26" height="26" viewBox="0 0 26 26" fill="none" xmlns="http://www.w3.org/2000/svg">
<path fill-rule="evenodd" clip-rule="evenodd" d="M2.44408 9.16225C1.85197 11.6865 1.85197 14.3135 2.44408 16.8377C3.226 20.1712 5.82881 22.774 9.16229 23.5559C11.6865 24.148 14.3135 24.148 16.8378 23.5559C20.1712 22.774 22.774 20.1712 23.5559 16.8377C24.148 14.3135 24.148 11.6865 23.5559 9.16225C22.774 5.82878 20.1712 3.22597 16.8378 2.4441C14.3135 1.85197 11.6865 1.85197 9.16229 2.4441C5.82882 3.22597 3.226 5.82878 2.44408 9.16225ZM0.496931 17.2944C-0.165643 14.4699 -0.165643 11.5301 0.496931 8.70558C1.45232 4.63251 4.63255 1.45224 8.70555 0.496901C11.5301 -0.165634 14.4699 -0.165634 17.2944 0.496901C21.3675 1.45223 24.5478 4.63251 25.5031 8.70558C26.1656 11.5301 26.1656 14.4699 25.5031 17.2944C24.5478 21.3674 21.3675 24.5477 17.2946 25.5031C14.4699 26.1656 11.5301 26.1656 8.70554 25.5031C4.63255 24.5477 1.45232 21.3675 0.496931 17.2944Z" fill="#0D0A1B"/>
<path fill-rule="evenodd" clip-rule="evenodd" d="M12.3744 17.0405C11.9839 17.431 11.3508 17.431 10.9603 17.0405L7.62688 13.7071C7.43935 13.5196 7.33399 13.2652 7.33399 13C7.33399 12.7348 7.43935 12.4804 7.62688 12.293L10.9603 8.95963C11.3508 8.5691 11.9839 8.5691 12.3744 8.95963C12.7649 9.35017 12.7649 9.98324 12.3744 10.3738L10.7483 12L17.6673 12C18.2196 12 18.6673 12.4478 18.6673 13C18.6673 13.5523 18.2196 14 17.6673 14L10.7483 14L12.3744 15.6263C12.7649 16.0168 12.7649 16.65 12.3744 17.0405Z" fill="#0D0A1B"/>
</svg>
