<svg width="18" height="18" viewBox="0 0 18 18" fill="none" xmlns="http://www.w3.org/2000/svg">
<g clip-path="url(#clip0_61_1796)">
<path d="M13.1247 1.4375C12.2802 1.45064 11.4541 1.68639 10.7298 2.12095C10.0055 2.55552 9.40874 3.1735 8.99973 3.9125C8.5907 3.1735 7.99393 2.55552 7.26965 2.12095C6.54538 1.68639 5.71926 1.45064 4.87473 1.4375C3.52843 1.49599 2.26 2.08494 1.34656 3.07567C0.433119 4.06641 -0.0510883 5.37839 -0.000275422 6.725C-0.000275422 10.1353 3.58922 13.8598 6.59972 16.385C7.27189 16.9498 8.12174 17.2595 8.99973 17.2595C9.87771 17.2595 10.7276 16.9498 11.3997 16.385C14.4102 13.8598 17.9997 10.1353 17.9997 6.725C18.0505 5.37839 17.5663 4.06641 16.6529 3.07567C15.7394 2.08494 14.471 1.49599 13.1247 1.4375ZM10.436 15.2375C10.034 15.576 9.52529 15.7617 8.99973 15.7617C8.47416 15.7617 7.96549 15.576 7.56347 15.2375C3.70997 12.0043 1.49972 8.90225 1.49972 6.725C1.44846 5.77604 1.7745 4.8453 2.40675 4.13577C3.039 3.42625 3.92615 2.99551 4.87473 2.9375C5.8233 2.99551 6.71045 3.42625 7.3427 4.13577C7.97495 4.8453 8.30099 5.77604 8.24973 6.725C8.24973 6.92391 8.32874 7.11468 8.46939 7.25533C8.61005 7.39598 8.80081 7.475 8.99973 7.475C9.19864 7.475 9.3894 7.39598 9.53006 7.25533C9.67071 7.11468 9.74973 6.92391 9.74973 6.725C9.69846 5.77604 10.0245 4.8453 10.6567 4.13577C11.289 3.42625 12.1762 2.99551 13.1247 2.9375C14.0733 2.99551 14.9605 3.42625 15.5927 4.13577C16.225 4.8453 16.551 5.77604 16.4997 6.725C16.4997 8.90225 14.2895 12.0043 10.436 15.2345V15.2375Z" fill="#4E4C57"/>
</g>
<defs>
<clipPath id="clip0_61_1796">
<rect width="18" height="18" fill="white"/>
</clipPath>
</defs>
</svg>
