<svg width="20" height="20" viewBox="0 0 20 20" fill="none" xmlns="http://www.w3.org/2000/svg">
<path fill-rule="evenodd" clip-rule="evenodd" d="M16.75 7C17.1642 7 17.5 7.33579 17.5 7.75V9H18.75C19.1642 9 19.5 9.3358 19.5 9.75C19.5 10.1642 19.1642 10.5 18.75 10.5H17.5V11.75C17.5 12.1642 17.1642 12.5 16.75 12.5C16.3358 12.5 16 12.1642 16 11.75V10.5H14.75C14.3358 10.5 14 10.1642 14 9.75C14 9.3358 14.3358 9 14.75 9H16V7.75C16 7.33579 16.3358 7 16.75 7Z" fill="#7436D7"/>
<path fill-rule="evenodd" clip-rule="evenodd" d="M7.75 1.5C5.88313 1.5 4.41669 2.95257 4.41669 4.6875C4.41669 6.42243 5.88313 7.875 7.75 7.875C9.6169 7.875 11.0834 6.42243 11.0834 4.6875C11.0834 2.95257 9.6169 1.5 7.75 1.5ZM2.91669 4.6875C2.91669 2.07319 5.10659 0 7.75 0C10.3935 0 12.5834 2.07319 12.5834 4.6875C12.5834 7.30181 10.3935 9.375 7.75 9.375C5.10659 9.375 2.91669 7.30181 2.91669 4.6875ZM10.4162 12.7184C8.6499 12.4272 6.85013 12.4272 5.08382 12.7184L4.87605 12.7527L4.75404 12.0127L4.87604 12.7527C2.94882 13.0704 1.5 14.7977 1.5 16.8615C1.5 17.5134 2.00549 18 2.57813 18H12.9219C13.4945 18 14 17.5134 14 16.8615C14 14.7977 12.5512 13.0704 10.624 12.7527L10.746 12.0127L10.624 12.7527L10.4162 12.7184ZM10.6602 11.2384L10.5382 11.9784L10.6602 11.2384L10.868 11.2726C13.5542 11.7155 15.5 14.099 15.5 16.8615C15.5 18.2955 14.3685 19.5 12.9219 19.5H2.57813C1.13147 19.5 0 18.2955 0 16.8615C0 14.099 1.94583 11.7155 4.63203 11.2726L4.83981 11.2384L4.96182 11.9784L4.83982 11.2384C6.7677 10.9205 8.7323 10.9205 10.6602 11.2384Z" fill="#7436D7"/>
</svg>
