<svg width="18" height="18" viewBox="0 0 18 18" fill="none" xmlns="http://www.w3.org/2000/svg">
<g clip-path="url(#clip0_61_1968)">
<path d="M13.1247 1.4375C12.2802 1.45064 11.4541 1.68639 10.7298 2.12095C10.0055 2.55552 9.40875 3.1735 8.99973 3.9125C8.5907 3.1735 7.99393 2.55552 7.26965 2.12095C6.54538 1.68639 5.71926 1.45064 4.87473 1.4375C3.52843 1.49599 2.26 2.08494 1.34656 3.07567C0.433119 4.06641 -0.0510883 5.37839 -0.000275422 6.725C-0.000275422 10.1353 3.58922 13.8597 6.59972 16.385C7.27189 16.9498 8.12174 17.2595 8.99973 17.2595C9.87771 17.2595 10.7276 16.9498 11.3997 16.385C14.4102 13.8597 17.9997 10.1353 17.9997 6.725C18.0505 5.37839 17.5663 4.06641 16.6529 3.07567C15.7394 2.08494 14.471 1.49599 13.1247 1.4375Z" fill="#7436D7"/>
</g>
<defs>
<clipPath id="clip0_61_1968">
<rect width="18" height="18" fill="white"/>
</clipPath>
</defs>
</svg>
