<svg width="22" height="25" viewBox="0 0 22 25" fill="none" xmlns="http://www.w3.org/2000/svg">
<path fill-rule="evenodd" clip-rule="evenodd" d="M12.1453 2.02355C11.3535 1.82549 10.5215 1.82549 9.72963 2.02355C7.86695 2.4895 6.57323 4.03022 6.44113 5.79786L6.5709 5.77147C9.45013 5.1859 12.4249 5.1859 15.3041 5.77147L15.4338 5.79785C15.3018 4.03021 14.008 2.4895 12.1453 2.02355ZM17.32 6.38204V6.09715C17.32 3.29977 15.3563 0.893987 12.6003 0.2046C11.5098 -0.0682 10.3653 -0.0682 9.27463 0.2046C6.51871 0.893987 4.55497 3.29978 4.55497 6.09714V6.38208C2.53944 7.29598 0.997777 9.03562 0.415152 11.1891C-0.269185 13.7185 -0.104122 16.3913 0.88549 18.8236L1.0016 19.1091C2.06345 21.7191 4.47041 23.5753 7.31113 24.0196L8.24704 24.166C10.029 24.4446 11.846 24.4446 13.6279 24.166L14.5639 24.0196C17.4045 23.5753 19.8115 21.7191 20.8734 19.1091L20.9895 18.8236L20.1211 18.4704L20.9895 18.8236C21.9791 16.3913 22.1443 13.7185 21.4599 11.189C20.8773 9.0355 19.3355 7.29592 17.32 6.38204ZM14.9304 7.60886C12.2978 7.07345 9.57725 7.07345 6.94459 7.60886L6.59945 7.67905C4.44854 8.1165 2.76646 9.67763 2.22509 11.6788C1.64823 13.811 1.78676 16.0635 2.62226 18.1171L2.73836 18.4025C3.54208 20.378 5.38285 21.8202 7.60085 22.1671L8.53675 22.3135C10.1268 22.5621 11.7483 22.5621 13.3383 22.3135L14.2741 22.1671C16.4921 21.8202 18.3329 20.378 19.1366 18.4025L19.2528 18.1171C20.0883 16.0635 20.2268 13.8109 19.6499 11.6788C19.1085 9.67763 17.4265 8.1165 15.2756 7.67905L14.9304 7.60886Z" fill="#0D0A1B"/>
<path fill-rule="evenodd" clip-rule="evenodd" d="M10.9375 13.125C11.4553 13.125 11.875 13.5447 11.875 14.0625V16.5625C11.875 17.0803 11.4553 17.5 10.9375 17.5C10.4197 17.5 10 17.0803 10 16.5625V14.0625C10 13.5447 10.4197 13.125 10.9375 13.125Z" fill="#0D0A1B"/>
</svg>
