<svg width="24" height="24" viewBox="0 0 24 24" fill="none" xmlns="http://www.w3.org/2000/svg">
<path fill-rule="evenodd" clip-rule="evenodd" d="M19.7408 3.96967C20.0337 4.26256 20.0337 4.73744 19.7408 5.03033L7.3704 17.4008C7.34475 17.4308 7.31689 17.4586 7.28715 17.484L5.02984 19.7413C4.73695 20.0342 4.26208 20.0342 3.96918 19.7413C3.67629 19.4484 3.67629 18.9735 3.96919 18.6807L5.50625 17.1436C4.26818 16.4038 3.38953 15.1818 3.14826 13.7525L3.13981 13.7024C2.98465 12.7832 2.98465 11.8464 3.13981 10.9272L3.14826 10.8772C3.4537 9.06763 4.78063 7.59055 6.56511 7.00323C7.52189 6.68833 8.52703 6.52778 9.53882 6.52778H10.3683C10.6815 6.52778 10.9735 6.40896 11.1811 6.21052L11.7898 5.62869L12.2693 6.1303L11.7898 5.62869C13.3574 4.13033 15.7258 4.19913 17.2317 5.41814L18.6802 3.96967C18.973 3.67678 19.4479 3.67678 19.7408 3.96967ZM16.1615 6.48833C15.213 5.81646 13.7801 5.80128 12.8262 6.71303L12.2175 7.29486L11.6993 6.75269L12.2175 7.29486C11.7221 7.76841 11.0554 8.02778 10.3683 8.02778H9.53882C8.68539 8.02778 7.83859 8.16325 7.03405 8.42805C5.7445 8.85247 4.83438 9.90021 4.62733 11.1268L4.61889 11.1769C4.49162 11.9308 4.49162 12.6988 4.61889 13.4528L4.62733 13.5028C4.81112 14.5916 5.54889 15.5395 6.61428 16.0356L16.1615 6.48833ZM18.1868 9.45894C18.5984 9.41271 18.9696 9.70893 19.0158 10.1206C19.2813 12.4848 19.1165 14.8814 18.5215 17.2047C17.7682 20.1464 13.9676 21.0825 11.7898 19.0009L11.1811 18.4191C10.9735 18.2207 10.6815 18.1019 10.3683 18.1019C9.95416 18.1019 9.61837 17.7661 9.61837 17.3519C9.61837 16.9376 9.95416 16.6019 10.3683 16.6019C11.0554 16.6019 11.7221 16.8612 12.2175 17.3348L12.8262 17.9166C14.2381 19.2661 16.6211 18.5793 17.0684 16.8326C17.6182 14.6854 17.7704 12.4716 17.5252 10.288C17.479 9.87633 17.7752 9.50517 18.1868 9.45894Z" fill="#7436D7"/>
</svg>
