<svg width="24" height="24" viewBox="0 0 24 24" fill="none" xmlns="http://www.w3.org/2000/svg">
<g clip-path="url(#clip0_220_1728)">
<path d="M23.2594 16.2002L20.6594 6.82917C20.1042 4.82459 18.8945 3.06331 17.2227 1.82566C15.5509 0.588005 13.5132 -0.0549039 11.4339 -0.000744217C9.35453 0.0534155 7.35306 0.801531 5.74799 2.12454C4.14292 3.44754 3.02649 5.26941 2.5764 7.30017L0.565404 16.3502C0.468096 16.7886 0.47047 17.2433 0.572349 17.6807C0.674228 18.1181 0.873013 18.5271 1.15404 18.8774C1.43506 19.2277 1.79116 19.5105 2.19605 19.7048C2.60094 19.8991 3.04429 20.0001 3.4934 20.0002H7.1004C7.32992 21.1305 7.94313 22.1466 8.83615 22.8766C9.72916 23.6065 10.847 24.0052 12.0004 24.0052C13.1538 24.0052 14.2716 23.6065 15.1647 22.8766C16.0577 22.1466 16.6709 21.1305 16.9004 20.0002H20.3704C20.8325 20 21.2883 19.893 21.7023 19.6876C22.1163 19.4823 22.4772 19.184 22.7569 18.8162C23.0367 18.4484 23.2276 18.0209 23.315 17.5672C23.4023 17.1134 23.3836 16.6455 23.2604 16.2002H23.2594ZM12.0004 22.0002C11.3821 21.9976 10.7798 21.8041 10.2757 21.4461C9.77164 21.0881 9.39049 20.5831 9.1844 20.0002H14.8164C14.6103 20.5831 14.2292 21.0881 13.7251 21.4461C13.221 21.8041 12.6187 21.9976 12.0004 22.0002ZM21.1654 17.6052C21.0721 17.7289 20.9512 17.829 20.8123 17.8976C20.6734 17.9662 20.5203 18.0013 20.3654 18.0002H3.4934C3.34367 18.0001 3.19584 17.9665 3.06085 17.9017C2.92586 17.8369 2.80714 17.7426 2.71346 17.6258C2.61978 17.509 2.55352 17.3726 2.51959 17.2268C2.48566 17.0809 2.48491 16.9293 2.5174 16.7832L4.5284 7.73317C4.88276 6.13938 5.75971 4.70978 7.01986 3.67162C8.28001 2.63347 9.85103 2.04634 11.4832 2.00359C13.1153 1.96083 14.7149 2.46489 16.0277 3.43564C17.3405 4.40639 18.2911 5.78812 18.7284 7.36117L21.3284 16.7322C21.3709 16.8804 21.3782 17.0364 21.3499 17.1879C21.3216 17.3394 21.2585 17.4823 21.1654 17.6052Z" fill="currentColor"/>
<path d="M10.3913 14.8812C10.5653 14.9598 10.7518 15.0002 10.9402 15C11.127 15.0008 11.3121 14.9613 11.485 14.884C11.6578 14.8066 11.8149 14.6928 11.9474 14.5491L16.8133 9.30762C16.9366 9.1599 17.0034 8.96627 16.9999 8.76652C16.9964 8.56677 16.9229 8.37607 16.7945 8.23361C16.6661 8.09115 16.4926 8.00773 16.3096 8.00051C16.1266 7.99329 15.948 8.06281 15.8105 8.19478L10.9352 13.4308L8.21819 10.5338C8.08235 10.3887 7.89925 10.3084 7.70916 10.3106C7.51908 10.3128 7.33758 10.3973 7.20459 10.5455C7.0716 10.6937 6.99803 10.8935 7.00004 11.1008C7.00206 11.3082 7.0795 11.5062 7.21534 11.6513L9.9259 14.542C10.0591 14.6874 10.2172 14.8026 10.3913 14.8812Z" fill="currentColor"/>
</g>
<defs>
<clipPath id="clip0_220_1728">
<rect width="24" height="24" fill="white"/>
</clipPath>
</defs>
</svg>
