<svg width="15" height="10" viewBox="0 0 15 10" fill="none" xmlns="http://www.w3.org/2000/svg">
<path d="M5.65045 0C3.58456 0.00229161 1.59251 0.714002 0 2C1.15051 2.49939 1.15056 2.99939 1.40373 3.43531C2.61683 2.50949 4.10738 2 5.65045 2C7.50696 2 9.28744 2.7375 10.6002 4.05025C11.913 5.36301 12.6504 7.14348 12.6504 9C12.6504 9.26522 12.7558 9.51957 12.9433 9.70711C13.1309 9.89464 13.3852 10 13.6504 10C13.9157 10 14.17 9.89464 14.3576 9.70711C14.5451 9.51957 14.6504 9.26522 14.6504 9C14.6478 6.61386 13.6987 4.32622 12.0115 2.63896C10.3242 0.951708 8.03658 0.00264685 5.65045 0Z" fill="#AF7DFF"/>
</svg>
