<svg width="24" height="24" viewBox="0 0 24 24" fill="none" xmlns="http://www.w3.org/2000/svg">
<path fill-rule="evenodd" clip-rule="evenodd" d="M14.1084 4.00081C12.7114 3.6664 11.2611 3.6664 9.86413 4.00081L9.64108 4.0542C7.12384 4.65676 5.1229 6.71346 4.50665 9.39443C4.16244 10.8919 4.16535 12.4702 4.51003 13.9698C5.14644 16.7384 7.01453 19.0237 9.4926 20.0832L9.61076 20.1337C10.365 20.4561 11.2766 20.084 11.6158 19.217C11.8529 18.6108 12.4324 18.1768 13.1107 18.1768H14.1721C16.6859 18.1768 18.912 16.3647 19.5167 13.7341C19.8278 12.3808 19.8278 10.9687 19.5167 9.61542L19.4279 9.22889C18.8349 6.64932 16.91 4.67142 14.4895 4.09204L14.1084 4.00081ZM9.51493 2.54202C11.1415 2.15266 12.8311 2.15266 14.4576 2.54202L14.8387 2.63325C17.8441 3.35266 20.1765 5.78984 20.8897 8.89287L20.9786 9.2794C21.3405 10.8538 21.3405 12.4957 20.9786 14.0701C20.2281 17.3351 17.4318 19.6768 14.1721 19.6768H13.1107C13.092 19.6768 13.0406 19.6921 13.0127 19.7634C12.3891 21.3576 10.6131 22.1936 9.0211 21.5129L8.90294 21.4624C5.95924 20.2039 3.78571 17.5145 3.04815 14.3058C2.65311 12.5871 2.64926 10.7791 3.04477 9.05841C3.78134 5.85397 6.18969 3.338 9.29188 2.59541L9.51493 2.54202Z" fill="#E04545"/>
<path d="M13.0156 15.4219C13.0156 15.9742 12.5679 16.4219 12.0156 16.4219C11.4633 16.4219 11.0156 15.9742 11.0156 15.4219C11.0156 14.8696 11.4633 14.4219 12.0156 14.4219C12.5679 14.4219 13.0156 14.8696 13.0156 15.4219Z" fill="#E04545"/>
<path d="M12.75 6.42188C12.75 6.00767 12.4142 5.67188 12 5.67188C11.5858 5.67188 11.25 6.00767 11.25 6.42188V12.4219C11.25 12.8361 11.5858 13.1719 12 13.1719C12.4142 13.1719 12.75 12.8361 12.75 12.4219V6.42188Z" fill="#E04545"/>
</svg>
