<svg width="14" height="17" viewBox="0 0 14 17" fill="none" xmlns="http://www.w3.org/2000/svg">
<path fill-rule="evenodd" clip-rule="evenodd" d="M9.21782 1.53097C7.48128 1.18968 5.69373 1.18968 3.95719 1.53097C2.39294 1.8384 1.275 3.19244 1.275 4.75572V14.4648C1.275 15.097 1.97956 15.5163 2.55721 15.182L5.26609 13.6143C6.0826 13.1418 7.0924 13.1418 7.90891 13.6143L10.6178 15.182C11.1954 15.5163 11.9 15.097 11.9 14.4648V4.75572C11.9 3.19244 10.7821 1.8384 9.21782 1.53097ZM3.71131 0.279904C5.61017 -0.0932971 7.56483 -0.0933056 9.46365 0.279904C11.616 0.702906 13.175 2.57307 13.175 4.75572V14.4648C13.175 16.1044 11.3847 17.099 9.97917 16.2856L7.27022 14.7177C6.84888 14.4739 6.32613 14.4739 5.90478 14.7177L3.19586 16.2856C1.79023 17.099 0 16.1044 0 14.4648V4.75572C0 2.57307 1.559 0.702906 3.71131 0.279904Z" fill="white"/>
</svg>
