<svg width="18" height="18" viewBox="0 0 18 18" fill="none" xmlns="http://www.w3.org/2000/svg">
<g clip-path="url(#clip0_61_1970)">
<path d="M13.8796 10.5306C13.3368 10.531 12.8022 10.6635 12.322 10.9167C11.8419 11.1699 11.4305 11.5361 11.1234 11.9837L6.4503 9.87365C6.78221 9.07216 6.7835 8.17189 6.45389 7.36945L11.1206 5.24863C11.5756 5.90681 12.2516 6.38009 13.0257 6.58261C13.7998 6.78513 14.6209 6.70348 15.34 6.35247C16.0591 6.00147 16.6286 5.40435 16.9452 4.66943C17.2617 3.93452 17.3044 3.11048 17.0654 2.3468C16.8265 1.58312 16.3217 0.930378 15.6427 0.506974C14.9637 0.0835703 14.1555 -0.0824492 13.3645 0.0390303C12.5736 0.16051 11.8524 0.561442 11.3318 1.1691C10.8112 1.77676 10.5256 2.5509 10.5268 3.35109C10.5299 3.54048 10.5491 3.72927 10.5842 3.9154L5.62322 6.16976C5.14675 5.72335 4.55025 5.42584 3.90702 5.31379C3.26378 5.20174 2.60182 5.28001 2.00247 5.53901C1.40311 5.798 0.892457 6.22643 0.533246 6.77166C0.174036 7.31688 -0.0180886 7.95517 -0.0195232 8.60809C-0.0209577 9.26101 0.16836 9.90013 0.525171 10.4469C0.881982 10.9937 1.39075 11.4244 1.98896 11.686C2.58717 11.9476 3.24878 12.0288 3.8925 11.9196C4.53622 11.8104 5.13402 11.5155 5.61245 11.0712L10.5864 13.3169C10.5519 13.5029 10.5329 13.6914 10.5297 13.8805C10.5295 14.5433 10.7259 15.1912 11.0941 15.7423C11.4622 16.2935 11.9855 16.723 12.5978 16.9767C13.2101 17.2304 13.8838 17.2968 14.5339 17.1676C15.1839 17.0383 15.781 16.7192 16.2496 16.2505C16.7183 15.7819 17.0374 15.1848 17.1667 14.5348C17.2959 13.8847 17.2295 13.211 16.9758 12.5987C16.7221 11.9864 16.2926 11.4631 15.7414 11.095C15.1903 10.7268 14.5424 10.5304 13.8796 10.5306Z" fill="#7436D7"/>
</g>
<defs>
<clipPath id="clip0_61_1970">
<rect width="17.2308" height="17.2308" fill="white"/>
</clipPath>
</defs>
</svg>
