<svg width="20" height="20" viewBox="0 0 20 20" fill="none" xmlns="http://www.w3.org/2000/svg">
<g clip-path="url(#clip0_157_1697)">
<path d="M16.1095 12.2227C15.4794 12.2232 14.859 12.377 14.3016 12.6709C13.7442 12.9647 13.2668 13.3898 12.9103 13.9094L7.48618 11.4602C7.87144 10.5299 7.87294 9.48495 7.49035 8.55354L12.907 6.09187C13.4352 6.85584 14.2198 7.40518 15.1183 7.64024C16.0169 7.87531 16.9699 7.78054 17.8046 7.37312C18.6393 6.9657 19.3003 6.27262 19.6677 5.4196C20.0352 4.56657 20.0847 3.6101 19.8073 2.72368C19.53 1.83727 18.9441 1.07962 18.156 0.588169C17.3678 0.0967179 16.4297 -0.0959833 15.5116 0.0450196C14.5936 0.186023 13.7565 0.65139 13.1522 1.35671C12.5479 2.06203 12.2164 2.96058 12.2178 3.88937C12.2214 4.10921 12.2437 4.32834 12.2845 4.54437L6.52618 7.16104C5.97313 6.64289 5.28077 6.29757 4.53416 6.16751C3.78755 6.03745 3.01921 6.1283 2.32352 6.42892C1.62784 6.72954 1.03512 7.22682 0.618179 7.85968C0.201238 8.49253 -0.021763 9.23339 -0.0234281 9.99125C-0.0250932 10.7491 0.19465 11.4909 0.608806 12.1256C1.02296 12.7603 1.61349 13.2602 2.30785 13.5639C3.0022 13.8675 3.77014 13.9618 4.51731 13.835C5.26449 13.7082 5.95836 13.3659 6.51368 12.8502L12.287 15.4569C12.2469 15.6727 12.2249 15.8915 12.2212 16.111C12.221 16.8803 12.449 17.6324 12.8763 18.2721C13.3036 18.9118 13.911 19.4104 14.6216 19.7048C15.3323 19.9993 16.1144 20.0764 16.8689 19.9264C17.6234 19.7763 18.3164 19.4059 18.8604 18.8619C19.4044 18.318 19.7748 17.6249 19.9248 16.8704C20.0749 16.1159 19.9978 15.3339 19.7033 14.6232C19.4088 13.9125 18.9102 13.3051 18.2705 12.8778C17.6308 12.4505 16.8788 12.2225 16.1095 12.2227ZM16.1095 1.66687C16.5491 1.66671 16.9789 1.79692 17.3445 2.04103C17.7101 2.28514 17.9951 2.63219 18.1634 3.03828C18.3318 3.44438 18.3759 3.89127 18.2902 4.32245C18.2046 4.75363 17.993 5.14972 17.6822 5.46062C17.3714 5.77153 16.9754 5.98328 16.5442 6.06911C16.1131 6.15493 15.6662 6.11097 15.26 5.94278C14.8539 5.77458 14.5067 5.48972 14.2625 5.12422C14.0182 4.75871 13.8878 4.32898 13.8878 3.88937C13.8883 3.30021 14.1225 2.73529 14.539 2.31861C14.9555 1.90193 15.5204 1.66754 16.1095 1.66687ZM3.88785 12.2227C3.44824 12.2229 3.01847 12.0927 2.65287 11.8486C2.28727 11.6044 2.00228 11.2574 1.83393 10.8513C1.66559 10.4452 1.62146 9.99831 1.70712 9.56713C1.79278 9.13595 2.00439 8.73986 2.31518 8.42896C2.62597 8.11805 3.02198 7.9063 3.45312 7.82047C3.88427 7.73465 4.33118 7.77861 4.73734 7.94681C5.14349 8.115 5.49065 8.39986 5.7349 8.76537C5.97915 9.13087 6.10952 9.5606 6.10952 10.0002C6.10885 10.5893 5.8746 11.1541 5.45812 11.5707C5.04165 11.9874 4.47694 12.2218 3.88785 12.2227ZM16.1095 18.3335C15.6699 18.3335 15.2402 18.2032 14.8748 17.959C14.5093 17.7148 14.2244 17.3677 14.0562 16.9616C13.888 16.5554 13.844 16.1086 13.9297 15.6775C14.0155 15.2463 14.2271 14.8503 14.538 14.5395C14.8488 14.2287 15.2448 14.017 15.6759 13.9312C16.107 13.8455 16.5539 13.8895 16.96 14.0577C17.3661 14.2259 17.7132 14.5108 17.9575 14.8763C18.2017 15.2418 18.332 15.6715 18.332 16.111C18.3316 16.7003 18.0973 17.2654 17.6806 17.6821C17.2639 18.0988 16.6988 18.3331 16.1095 18.3335Z" fill="currentColor"/>
</g>
<defs>
<clipPath id="clip0_157_1697">
<rect width="20" height="20" fill="white"/>
</clipPath>
</defs>
</svg>
