<svg width="28" height="28" viewBox="0 0 28 28" fill="none" xmlns="http://www.w3.org/2000/svg">
<path fill-rule="evenodd" clip-rule="evenodd" d="M13.8125 2.125C11.8433 2.125 10.219 3.46263 9.80455 5.21884C9.70938 5.62215 9.38842 5.93334 8.98238 6.01599L8.7614 6.06097C5.76532 6.67077 3.39735 8.87607 2.62439 11.7354C1.95854 14.1984 1.95854 16.7875 2.62439 19.2507C3.39735 22.1099 5.76532 24.3152 8.7614 24.925L9.40711 25.0564C12.3127 25.6479 15.3123 25.6479 18.2179 25.0564L18.8636 24.925C21.8597 24.3152 24.2277 22.1099 25.0006 19.2507C25.6665 16.7875 25.6665 14.1984 25.0006 11.7354C24.2277 8.87607 21.8597 6.67077 18.8636 6.06095L18.6426 6.01599C18.2366 5.93334 17.9156 5.62215 17.8204 5.21886C17.406 3.46263 15.7818 2.125 13.8125 2.125ZM7.93326 4.06938C8.79485 1.6865 11.1123 0 13.8125 0C16.5127 0 18.8302 1.6865 19.6918 4.06938C23.2645 4.94615 26.0991 7.65609 27.052 11.1808C27.816 14.007 27.816 16.9789 27.052 19.8051C26.0634 23.4618 23.0496 26.2416 19.2874 27.0073L18.6418 27.1388C15.4564 27.7871 12.1686 27.7871 8.98328 27.1388L8.33758 27.0073C4.57545 26.2416 1.56155 23.4618 0.573028 19.8051C-0.191009 16.9789 -0.191009 14.007 0.573028 11.1808C1.52586 7.65609 4.36056 4.94615 7.93326 4.06938Z" fill="#7436D7"/>
<path fill-rule="evenodd" clip-rule="evenodd" d="M9.20898 15.2292C9.20898 12.6864 11.2704 10.625 13.8132 10.625C16.3559 10.625 18.4173 12.6864 18.4173 15.2292C18.4173 17.7719 16.3559 19.8333 13.8132 19.8333C11.2704 19.8333 9.20898 17.7719 9.20898 15.2292ZM13.8132 12.75C12.4439 12.75 11.334 13.86 11.334 15.2292C11.334 16.5984 12.4439 17.7083 13.8132 17.7083C15.1824 17.7083 16.2923 16.5984 16.2923 15.2292C16.2923 13.86 15.1824 12.75 13.8132 12.75Z" fill="#7436D7"/>
</svg>
