<svg width="24" height="24" viewBox="0 0 24 24" fill="none" xmlns="http://www.w3.org/2000/svg">
<path fill-rule="evenodd" clip-rule="evenodd" d="M20.4011 3.46551C20.6963 3.75609 20.7001 4.23095 20.4095 4.52614L5.22199 19.9547C4.93141 20.2499 4.45655 20.2536 4.16136 19.9631C3.86617 19.6725 3.86243 19.1976 4.15301 18.9024L5.04808 17.9932C4.37089 17.3488 3.76676 16.5931 3.26013 15.7275C1.91329 13.4266 1.91329 10.5734 3.26013 8.27246C6.39627 2.91477 13.187 1.84774 17.7851 5.05392L19.3405 3.47386C19.6311 3.17867 20.1059 3.17493 20.4011 3.46551ZM16.715 6.14106C12.8005 3.58402 7.17565 4.55258 4.55466 9.03021C3.48178 10.8631 3.48178 13.1369 4.55466 14.9698C4.99491 15.7219 5.51771 16.3727 6.10054 16.924L8.45229 14.5349C7.97336 13.8312 7.69331 12.9779 7.69331 12.0607C7.69331 9.66125 9.60973 7.69699 11.9994 7.69699C12.9028 7.69699 13.7412 7.97927 14.4327 8.45954L16.715 6.14106ZM13.3564 9.55294C12.9537 9.3256 12.4913 9.19699 11.9994 9.19699C10.4606 9.19699 9.19331 10.467 9.19331 12.0607C9.19331 12.5594 9.31775 13.0268 9.53629 13.4337L13.3564 9.55294ZM19.7137 8.00407C20.0712 7.79482 20.5306 7.91498 20.7399 8.27246C22.0867 10.5734 22.0867 13.4266 20.7399 15.7275C18.1274 20.1907 12.9744 21.6752 8.67645 20.1959C8.28478 20.0611 8.07656 19.6343 8.21137 19.2426C8.34619 18.851 8.77298 18.6427 9.16464 18.7776C12.8404 20.0427 17.2217 18.7686 19.4453 14.9698C20.5182 13.1369 20.5182 10.8631 19.4453 9.03021C19.2361 8.67274 19.3563 8.21332 19.7137 8.00407ZM15.5567 11.3107C15.9709 11.3107 16.3067 11.6465 16.3067 12.0607C16.3067 14.4595 14.3887 16.4233 11.9994 16.4233C11.5852 16.4233 11.2494 16.0875 11.2494 15.6733C11.2494 15.2591 11.5852 14.9233 11.9994 14.9233C13.5387 14.9233 14.8067 13.6528 14.8067 12.0607C14.8067 11.6465 15.1425 11.3107 15.5567 11.3107Z" fill="#7436D7"/>
</svg>
